<svg xmlns="http://www.w3.org/2000/svg" xmlns:xlink="http://www.w3.org/1999/xlink" version="1.1" width="1000" height="1000" viewBox="0 0 1000 1000" xml:space="preserve">
<desc>Created with Fabric.js 3.5.0</desc>
<defs>
</defs>
<rect x="0" y="0" width="100%" height="100%" fill="rgba(255,255,255,0)"/>
<g transform="matrix(15.674 0 0 15.674 500.0005 500.0005)" id="438702">
<path style="stroke: none; stroke-width: 1; stroke-dasharray: none; stroke-linecap: butt; stroke-dashoffset: 0; stroke-linejoin: miter; stroke-miterlimit: 4; is-custom-font: none; font-file-url: none; fill: rgb(91,125,177); fill-rule: nonzero; opacity: 1;" vector-effect="non-scaling-stroke" transform=" translate(-29, -29)" d="M 23.936 54.07 c 0.539 -0.12 0.879 -0.654 0.76 -1.193 c -0.121 -0.539 -0.663 -0.874 -1.193 -0.759 l -7.252 1.614 c -0.003 -0.002 -0.007 -0.003 -0.01 -0.005 l -0.171 0.045 l -0.326 0.073 c -0.027 0.006 -0.047 0.024 -0.073 0.032 L 0 58 l 4.988 -14.963 C 2.457 38.78 1 33.812 1 28.5 C 1 12.76 13.76 0 29.5 0 S 58 12.76 58 28.5 S 45.24 57 29.5 57 c -3.603 0 -7.048 -0.673 -10.221 -1.894 L 23.936 54.07 z" stroke-linecap="round"/>
</g>
<g transform="matrix(1 0 0 1 500 500)" style="" id="177156">
		
<path xml:space="preserve" font-family="Open Sans Condensed" font-size="623" font-style="normal" font-weight="bold" style="stroke: none; stroke-width: 1; stroke-dasharray: none; stroke-linecap: butt; stroke-dashoffset: 0; stroke-linejoin: miter; stroke-miterlimit: 4; is-custom-font: none; font-file-url: none; fill: rgb(26,19,47); fill-rule: nonzero; opacity: 1; white-space: pre;" d="M-161.23 63.69L-161.23 132.13L-375.69-0.50L-375.69-47.95L-161.23-179.98L-161.23-111.53L-309.37-24.23L-161.23 63.69ZM113.16 73.12L113.16 73.12Q113.16 135.48 81.68 168.64Q50.19 201.79-9.13 201.79L-9.13 201.79Q-67.23 201.79-107.99 178.98L-107.99 178.98L-107.99 97.15Q-58.10 129.70-16.43 129.70L-16.43 129.70Q7.30 129.70 19.32 116.62Q31.33 103.54 31.33 81.03L31.33 81.03Q31.33 58.82 17.03 40.42Q2.74 22.01-30.12-0.50L-30.12-0.50Q-58.71-20.27-73.47-38.37Q-88.22-56.47-96.28-78.98Q-104.34-101.49-104.34-131.30L-104.34-131.30Q-104.34-188.49-72.55-221.96Q-40.76-255.42 12.77-255.42L12.77-255.42Q63.88-255.42 111.03-226.82L111.03-226.82L83.65-160.51Q69.05-169.03 53.08-175.72Q37.11-182.41 18.86-182.41L18.86-182.41Q-1.22-182.41-12.02-169.18Q-22.82-155.95-22.82-133.13L-22.82-133.13Q-22.82-110.62-9.89-93.89Q3.04-77.16 35.29-55.86L35.29-55.86Q78.79-26.66 95.97 3.76Q113.16 34.18 113.16 73.12ZM160.92 132.13L160.92 63.69L309.98-24.23L160.92-111.53L160.92-179.98L375.38-47.95L375.38-0.50L160.92 132.13Z"/></g>
</svg>